OpenSim_Sub03_CSStiffKnee_RCS.mot
version=1
nRows=46
nColumns=11
inDegrees=no
endheader
time	Top_Thigh	Med_Thigh	Bot_Thigh	Top_Shank	2nd_Top_Shank	2nd_Bot_Shank	Bot_Shank	BNOx	BNOy	BNOZ
0	9913.58111152	9976.96547923	10676.17314831	10815.99911660	12101.05390303	13070.85778337	14144.18602927	22.35437251	-83.93995644	178.88778222
0.01000000	9912.92275570	9977.43906214	10675.51257450	10815.99745474	12099.45572815	13069.27680801	14144.32581664	22.33985639	-83.94033206	178.89325609
0.02000000	9912.08775724	9977.90841767	10674.93136533	10815.99574589	12098.11540943	13067.81314555	14144.48163529	22.32384145	-83.94075290	178.89986992
0.03000000	9911.14532596	9978.33743564	10674.45570033	10815.99445720	12097.05998855	13066.51608599	14144.63926775	22.30695328	-83.94109937	178.90748426
0.04000000	9910.16467170	9978.69000592	10674.11175901	10815.99405582	12096.31650717	13065.43491936	14144.78449651	22.28981747	-83.94125191	178.91595964
0.05000000	9909.21500429	9978.93001833	10673.92572091	10815.99500890	12095.91200696	13064.61893566	14144.90310410	22.27305962	-83.94109092	178.92515661
0.06000000	9908.36553355	9979.02136273	10673.92376555	10815.99778357	12095.87352960	13064.11742490	14144.98087301	22.25730532	-83.94049683	178.93493572
0.07000000	9907.68333262	9978.92955563	10674.13034816	10816.00281303	12096.22508712	13063.97655280	14145.00411065	22.24316521	-83.93935831	178.94516178
0.08000000	9907.18633078	9978.65752690	10674.53026522	10816.00974906	12096.92101037	13064.17062648	14144.97119682	22.23090593	-83.93775396	178.95579772
0.09000000	9906.84331341	9978.24561979	10675.06865445	10816.01746207	12097.84594894	13064.60209441	14144.89258372	22.22045016	-83.93595231	178.96690457
0.10000000	9906.62092924	9977.73580420	10675.68892926	10816.02478850	12098.88152283	13065.17028079	14144.77924845	22.21170559	-83.93423014	178.97854764
0.11000000	9906.48582696	9977.17005006	10676.33450309	10816.03056477	12099.90935203	13065.77450983	14144.64216809	22.20457993	-83.93286422	178.99079224
0.12000000	9906.40465528	9976.59032726	10676.94878935	10816.03362733	12100.81105653	13066.31410571	14144.49231974	22.19898089	-83.93213135	179.00370366
0.13000000	9906.34406291	9976.03860573	10677.47520146	10816.03281261	12101.46825632	13066.68839265	14144.34068049	22.19481618	-83.93230830	179.01734722
0.14000000	9906.27069856	9975.55685536	10677.85715286	10816.02695705	12101.76257138	13066.79669482	14144.19822743	22.19199350	-83.93367186	179.03178821
0.15000000	9906.15121093	9975.18704607	10678.03805695	10816.01489707	12101.57562171	13066.53833644	14144.07593765	22.19042056	-83.93649881	179.04709195
0.16000000	9905.95234389	9974.97105086	10677.96151192	10815.99547780	12100.78936724	13065.81295364	14143.98476368	22.19000464	-83.94106488	179.06332317
0.17000000	9905.66101539	9974.93019574	10677.61028189	10815.96938364	12099.35783622	13064.58631200	14143.93044849	22.19056361	-83.94742572	179.08042564
0.18000000	9905.30915436	9975.03996373	10677.05451537	10815.94140275	12097.39585079	13062.97172074	14143.90711195	22.19171582	-83.95514584	179.09807330
0.19000000	9904.93478004	9975.26963501	10676.37618459	10815.91687853	12095.03998959	13061.10245264	14143.90730118	22.19305261	-83.96372333	179.11590354
0.20000000	9904.57591166	9975.58848975	10675.65726177	10815.90115440	12092.42683124	13059.11178051	14143.92356337	22.19416535	-83.97265624	179.13355378
0.21000000	9904.27056847	9975.96580810	10674.97971911	10815.89957377	12089.69295436	13057.13297717	14143.94844564	22.19464539	-83.98144267	179.15066143
0.22000000	9904.05676968	9976.37087023	10674.42552884	10815.91748004	12086.97493758	13055.29931541	14143.97449517	22.19408408	-83.98958068	179.16686389
0.23000000	9903.97253454	9976.77295631	10674.07666316	10815.96021663	12084.40935953	13053.74406803	14143.99425911	22.19207278	-83.99656836	179.18179857
0.24000000	9904.05507144	9977.14165923	10674.01348759	10816.03297902	12082.13118296	13052.59820780	14144.00042525	22.18821174	-84.00191199	179.19510820
0.25000000	9904.31006790	9977.45872907	10674.25390705	10816.13521161	12080.21255348	13051.90329314	14143.99114907	22.18244730	-84.00543740	179.20664257
0.26000000	9904.70226465	9977.72170855	10674.73468796	10816.25888801	12078.64401502	13051.58473008	14143.97168872	22.17517542	-84.00738552	179.21652044
0.27000000	9905.19366588	9977.92919583	10675.38717410	10816.39548253	12077.41065793	13051.56016198	14143.94777704	22.16682205	-84.00802500	179.22487855
0.28000000	9905.74627579	9978.07978906	10676.14270927	10816.53646947	12076.49757257	13051.74723224	14143.92514689	22.15781318	-84.00762450	179.23185362
0.29000000	9906.32209857	9978.17208640	10676.93263724	10816.67332316	12075.88984929	13052.06358422	14143.90953110	22.14857478	-84.00645269	179.23758240
0.30000000	9906.88313842	9978.20468601	10677.68830181	10816.79751790	12075.57257845	13052.42686130	14143.90666251	22.13953284	-84.00477821	179.24220161
0.31000000	9907.39139953	9978.17618605	10678.34104677	10816.90052801	12075.53085038	13052.75470684	14143.92227398	22.13111332	-84.00286972	179.24584799
0.32000000	9907.80888610	9978.08518467	10678.82221590	10816.97382778	12075.74975546	13052.96476424	14143.96209833	22.12374222	-84.00099590	179.24865827
0.33000000	9908.09821534	9977.93050230	10679.06435461	10817.00904721	12076.21402766	13052.97611467	14144.03172291	22.11783890	-83.99942197	179.25076848
0.34000000	9908.24583584	9977.71959982	10679.04672118	10817.00386809	12076.89454699	13052.76373490	14144.13107815	22.11356599	-83.99828016	179.25228661
0.35000000	9908.26915395	9977.47116235	10678.80925553	10816.96383371	12077.74419672	13052.37521193	14144.25274597	22.11075261	-83.99752991	179.25328432
0.36000000	9908.18764502	9977.20462517	10678.39595306	10816.89501278	12078.71465731	13051.86298545	14144.38881719	22.10920557	-83.99711914	179.25383082
0.37000000	9908.02078434	9976.93942355	10677.85080916	10816.80347400	12079.75760925	13051.27949516	14144.53138262	22.10873171	-83.99699572	179.25399533
0.38000000	9907.78804726	9976.69499276	10677.21781923	10816.69528606	12080.82473304	13050.67718073	14144.67253308	22.10913785	-83.99710756	179.25384705
0.39000000	9907.50890909	9976.49076806	10676.54097867	10816.57651767	12081.86770915	13050.10848185	14144.80435939	22.11023080	-83.99740256	179.25345520
0.40000000	9907.20284516	9976.34618473	10675.86428285	10816.45323751	12082.83821807	13049.62583822	14144.91895237	22.11181740	-83.99782861	179.25288900
0.41000000	9906.88933079	9976.28067803	10675.23172718	10816.33151430	12083.68794030	13049.28168952	14145.00840282	22.11370446	-83.99833360	179.25221766
0.42000000	9906.58784130	9976.31368324	10674.68730706	10816.21741672	12084.36855630	13049.12847543	14145.06480156	22.11569881	-83.99886545	179.25151038
0.43000000	9906.31785201	9976.46463563	10674.27501786	10816.11701348	12084.83174658	13049.21863564	14145.08023941	22.11760727	-83.99937204	179.25083639
0.44000000	9906.09883826	9976.75297046	10674.03885500	10816.03637328	12085.02919161	13049.60460985	14145.04680719	22.11923667	-83.99980127	179.25026490
0.45000000	9905.95017699	9977.19708630	10674.02190703	10815.98143560	12084.91429235	13050.33666255	14144.95688257	22.12039706	-84.00010194	179.24986393
